<svg height="512pt" viewBox="0 0 512 512.002" width="512pt" xmlns="http://www.w3.org/2000/svg"><path d="m509.070312 98.117188c1.875-1.875 2.929688-4.417969 2.929688-7.070313v-81.046875c0-5.523438-4.476562-10-10-10h-81.042969c-2.652343 0-5.195312 1.054688-7.070312 2.929688l-157.886719 157.882812-32.113281-32.113281c-3.902344-3.90625-10.234375-3.90625-14.140625 0-3.90625 3.902343-3.90625 10.234375 0 14.140625l32.113281 32.113281-26.378906 26.382813-114.433594-114.433594v-52.761719l55.550781 55.550781c3.90625 3.90625 10.234375 3.90625 14.140625 0 3.90625-3.902344 3.90625-10.234375 0-14.140625l-72.621093-72.621093c-1.875-1.875-4.417969-2.929688-7.070313-2.929688h-81.046875c-5.519531 0-10 4.476562-10 10v81.046875c0 2.648437 1.054688 5.195313 2.929688 7.070313l157.882812 157.882812-29.171875 29.171875c-3.792969-1.378906-7.835937-2.097656-11.996094-2.097656-9.371093 0-18.183593 3.648437-24.8125 10.277343-6.628906 6.625-10.277343 15.4375-10.277343 24.8125 0 9.371094 3.648437 18.183594 10.277343 24.8125l9.058594 9.054688-62.675781 62.675781c-3.527344-1.425781-7.328125-2.179687-11.246094-2.179687-8.007812 0-15.53125 3.117187-21.191406 8.777344-11.683594 11.6875-11.683594 30.699218 0 42.382812l39.535156 39.535156c5.660156 5.660156 13.183594 8.777344 21.191406 8.777344 8.003906 0 15.527344-3.117188 21.1875-8.777344 8.753906-8.75 10.949219-21.613281 6.589844-32.425781l62.683594-62.6875 9.058594 9.058594c6.839843 6.839843 15.828124 10.261719 24.8125 10.261719 8.984374 0 17.972656-3.417969 24.8125-10.261719 9.929687-9.929688 12.648437-24.378907 8.160156-36.789063l29.191406-29.1875 29.1875 29.1875c-4.484375 12.410156-1.769531 26.859375 8.160156 36.792969 6.84375 6.839844 15.828125 10.257813 24.8125 10.257813 8.988282 0 17.972656-3.417969 24.816406-10.257813l9.054688-9.058594 62.6875 62.683594c-4.359375 10.8125-2.164062 23.675781 6.585938 32.425781 5.660156 5.664063 13.1875 8.78125 21.191406 8.78125 8.007812 0 15.53125-3.117187 21.191406-8.777344l39.535156-39.535156c11.683594-11.6875 11.683594-30.699218 0-42.382812-5.660156-5.660156-13.1875-8.777344-21.191406-8.777344-3.917969 0-7.722656.75-11.246094 2.179688l-62.675781-62.675782 9.058594-9.058594c6.628906-6.625 10.277343-15.4375 10.277343-24.8125 0-9.371093-3.648437-18.183593-10.277343-24.8125-6.628907-6.625-15.441407-10.277343-24.8125-10.277343-4.160157 0-8.203125.722656-11.996094 2.097656l-29.171875-29.171875zm-294.0625 265.78125-26.378906-26.382813 187.109375-187.109375c3.90625-3.90625 3.90625-10.238281 0-14.144531-3.902343-3.902344-10.234375-3.90625-14.140625 0l-187.113281 187.113281-26.378906-26.378906 262.851562-262.851563v56.902344c0 5.523437 4.476563 10 10 10h56.902344zm276.992188-282.851563h-61.042969v-61.046875h61.042969zm-410.953125-61.046875v61.046875h-61.046875v-61.046875zm-46.902344 81.046875h52.757813l114.433594 114.429687-26.382813 26.382813zm42.410157 388.035156c-1.882813 1.882813-4.386719 2.917969-7.050782 2.917969-2.660156 0-5.164062-1.035156-7.046875-2.917969l-39.535156-39.535156c-3.886719-3.886719-3.886719-10.210937 0-14.097656 1.882813-1.882813 4.386719-2.921875 7.046875-2.921875 2.640625 0 5.125 1.023437 7 2.878906l39.632812 39.632812c3.835938 3.890626 3.820313 10.171876-.046874 14.042969zm8.269531-34.113281-27.792969-27.789062 61-61.003907 27.792969 27.792969zm119.683593-51.945312c-5.882812 5.882812-15.457031 5.886718-21.339843 0l-74.191407-74.191407c-2.851562-2.847656-4.421874-6.640625-4.421874-10.667969 0-4.03125 1.570312-7.820312 4.421874-10.671874 2.851563-2.847657 6.640626-4.417969 10.671876-4.417969 4.019531 0 7.800781 1.5625 10.648437 4.402343l74.25 74.25c5.84375 5.882813 5.832031 15.425782-.039063 21.296876zm92.015626-92.359376 26.851562 26.851563-26.378906 26.382813-26.851563-26.851563zm192.558593 124.785157c3.886719 3.886719 3.886719 10.210937 0 14.097656l-39.535156 39.535156c-1.882813 1.882813-4.386719 2.917969-7.050781 2.917969-2.660156 0-5.164063-1.035156-7.046875-2.921875-3.871094-3.867187-3.882813-10.152344-.046875-14.042969l39.632812-39.636718c1.878906-1.847657 4.359375-2.871094 6.996094-2.871094 2.664062 0 5.167969 1.039062 7.050781 2.921875zm-34.109375-8.273438-27.792968 27.792969-61.003907-61 27.792969-27.792969zm-51.949218-119.683593c2.851562 2.851562 4.421874 6.640624 4.421874 10.671874s-1.570312 7.820313-4.421874 10.667969l-74.1875 74.191407c-5.886719 5.882812-15.457032 5.886718-21.34375 0-5.871094-5.871094-5.882813-15.417969-.03125-21.304688l74.25-74.25c2.847656-2.835938 6.625-4.398438 10.644531-4.398438 4.03125.003907 7.820312 1.570313 10.667969 4.421876zm-39.125-10.496094-26.378907 26.378906-26.855469-26.851562 26.382813-26.378907zm0 0"/><path d="m393.972656 108.03125c-2.632812 0-5.210937 1.070312-7.070312 2.929688-1.859375 1.859374-2.929688 4.429687-2.929688 7.070312 0 2.628906 1.066406 5.207031 2.929688 7.070312 1.859375 1.859376 4.4375 2.929688 7.070312 2.929688 2.628906 0 5.207032-1.070312 7.066406-2.929688 1.859376-1.863281 2.933594-4.441406 2.933594-7.070312 0-2.632812-1.070312-5.210938-2.933594-7.070312-1.859374-1.859376-4.4375-2.929688-7.066406-2.929688zm0 0"/><path d="m190.269531 119.230469c2.640625 0 5.210938-1.070313 7.070313-2.929688 1.871094-1.871093 2.929687-4.441406 2.929687-7.070312 0-2.628907-1.058593-5.210938-2.929687-7.070313-1.859375-1.871094-4.429688-2.929687-7.070313-2.929687-2.628906 0-5.207031 1.058593-7.066406 2.929687-1.859375 1.859375-2.933594 4.429688-2.933594 7.070313 0 2.628906 1.070313 5.210937 2.933594 7.070312 1.859375 1.859375 4.4375 2.929688 7.066406 2.929688zm0 0"/></svg>